<?xml version="1.0" encoding="UTF-8"?>
<svg id="Camada_1" xmlns="http://www.w3.org/2000/svg" version="1.1" xmlns:xlink="http://www.w3.org/1999/xlink" viewBox="0 0 512 512">
  <!-- Generator: Adobe Illustrator 29.8.4, SVG Export Plug-In . SVG Version: 2.1.1 Build 6)  -->
  <defs>
    <style>
      .st0 {
        fill: #abb3bf;
      }

      .st1 {
        fill: #c4942c;
      }

      .st2 {
        fill: #617a97;
      }

      .st3 {
        fill: url(#Gradiente_sem_nome_2);
      }

      .st4 {
        fill: url(#Gradiente_sem_nome_3);
      }

      .st5 {
        fill: #fefefe;
      }

      .st6 {
        fill: #446484;
      }
    </style>
    <linearGradient id="Gradiente_sem_nome_3" data-name="Gradiente sem nome 3" x1="166.03" y1="203.85" x2="188.71" y2="201.92" gradientTransform="translate(0 514) scale(1 -1)" gradientUnits="userSpaceOnUse">
      <stop offset="0" stop-color="#395678"/>
      <stop offset="1" stop-color="#6a86a1"/>
    </linearGradient>
    <linearGradient id="Gradiente_sem_nome_2" data-name="Gradiente sem nome 2" x1="257.53" y1="180.04" x2="235.05" y2="171.23" gradientTransform="translate(0 514) scale(1 -1)" gradientUnits="userSpaceOnUse">
      <stop offset="0" stop-color="#254e72"/>
      <stop offset="1" stop-color="#657a99"/>
    </linearGradient>
  </defs>
  <path class="st1" d="M251,44.75c46.82-1.33,92.22,16.14,126.07,48.51,37.64,35.88,55.66,81.5,56.91,133.02l-174.05-.07-184.13-.05c2.6-100.32,74.05-177.05,175.21-181.4Z"/>
  <path class="st1" d="M75.32,402.17c34.72-.3,70.03.26,104.8.35l254.15.72c-.24,4.44-.19,9.92-.25,14.44-36.46-1.14-77.98-.22-114.82-.36l-243.74-.63-.14-14.52Z"/>
  <path class="st1" d="M85.49,445.58c35.54-.67,73.64-.24,109.27.01-1.73,17.52-5.85,28.2-18.48,40.74-34.84,28.62-83.25,12.29-92.88-31.91-.76-3.49-2.13-8.24,2.09-8.84Z"/>
  <path class="st1" d="M318.48,445.53l105.95.02c-1.11,18.36-5.22,27.86-18.49,41.05-12.99,11.35-31.12,16.2-48.04,13-14.44-2.65-27.19-11.03-35.35-23.24-4.38-6.45-10.65-21.91-9.14-29.68,1.47-1.29,2.81-.97,5.07-1.16Z"/>
  <path class="st5" d="M252.57,316.76c-.47-1.97-1.27-4.2-1.91-6.16-5.61-17.18-10.78-34.58-17.02-51.53-.55-1.49-2.87-3.16-4.17-4.07l.74-.73c5.59,1.2,9.59-.64,14.77.06l.55.86-1.92,2.39c-.62,1.87,10.4,34.2,11.84,38.85,2.89-1.18,2.92-.69,4.58-3.04.36,1.38.74,3.38,1.52,4.49-.67,2.07-2.74,6.8-2.92,8.02,5.27,16.22,11.14,35.89,16.84,51.71l1.08,1.78c-.07,2.17-3.79,13.94-4.63,16.75-5.12-16.27-10.39-32.48-15.8-48.65l-3.56-10.74Z"/>
  <path class="st6" d="M255.45,296.44c2.89-1.18,2.92-.69,4.58-3.04.36,1.38.74,3.38,1.52,4.49-.67,2.07-2.74,6.8-2.92,8.02l-3.19-9.47Z"/>
  <path class="st5" d="M113.55,254.2c6.18.56,10.79.12,16.9.12,1.27,2.51-1.49,5.42-1.01,6.7,4.24,11.27,9.2,28.1,12.97,38.89l.43,2.05,16.43,50.66c1.12,3.49,1.55,4.34,3.48,7.45-2.05,5.13-3.79,10.7-5.54,15.96l-16.67-52.03-2.61-8.48c-5.46-17.15-12.12-40.83-19.52-57.35-.49-1.09-3.7-3.21-4.88-3.97Z"/>
  <path class="st5" d="M190.63,254.07c4.5.67,12.48.45,17.33.44l.46.58c-.56.77-2.48,3.24-2.16,4.18,2.7,8.04,5.39,16.11,8,24.18l24.03,74.56,1.41,2.08c-1.77,4.59-3.7,11.27-5.23,16.09-1.53-5.98-3.44-11.99-5.4-17.89-10.82-32.59-20.75-65.63-32.28-97.94-.41-1.16-5-5.23-6.15-6.27Z"/>
  <path class="st5" d="M308.24,257.2l-1.6-1.81.22-.76c4.45-.31,11.05-.14,15.88-.29-.03,2.28-1.67,3.91-1.4,4.91,2.42,8.76,5.9,19.35,8.78,27.93,7.73,23.06,14.74,47.5,22.96,70.28.58.81,1.31,1.69,1.62,2.62-2.27,5.97-3.54,10.17-5.21,16.36l-24.75-76.9c-2.85-8.95-9.58-32.31-13.28-39.75-1.17-1.54-1.52-1.68-3.24-2.6Z"/>
  <path class="st5" d="M77.94,254.25c2.59.27,14.96.06,15.71.45-.3.6-1.68,3.44-1.61,3.64,5.51,17.17,27.65,91.31,33.36,101.6-.92,3.14-2.25,6.63-3.35,9.74-.42,1.9-.46,2.94-1.97,4.11-.98-.96-8.78-25.38-9.77-28.38l-18.75-58.32c-2.4-7.52-4.86-15.48-7.21-23.02-1.81-5.81-5.76-7.89-6.42-9.83Z"/>
  <path class="st5" d="M342.82,254.22c5.7.5,11.43.51,17.13.04l.29,1.01-1.77,3.15c-.05,3.47,27.21,85.96,30.55,96.31.76,2.53,1.41,3.31,2.88,5.42-2.25,5.19-3.73,10.53-5.35,15.95-3.35-9.17-6.75-20.95-9.76-30.39-5.79-18.49-11.72-36.93-17.78-55.33-3.28-10.19-6.52-21.84-10.8-31.67-.61-1.4-3.99-3.56-5.39-4.5Z"/>
  <path class="st1" d="M250.67,11.47c18.14-.92,26.73,8,29.46,25.31-6.17.36-14.55.12-20.89.13-5.3,0-25.28.71-29.03-.64-3.59-3.69-1-7.49,1.49-11.26,4.84-7.32,10.24-11.81,18.97-13.55Z"/>
  <path class="st4" d="M159.28,352.63c9.11-2.5,28.35-85.63,33.96-90.37.64,1.07.51,2.97.14,4.13-9.62,30.25-18.01,61.01-28.64,90.91-.41,1.14-1.62,2.03-1.99,2.79-1.93-3.11-2.36-3.97-3.48-7.45Z"/>
  <path class="st6" d="M308.24,257.2c1.72.92,2.07,1.06,3.24,2.6-1.98,3.49-7.61,22.45-9.24,27.06-6.48,18.33-12.8,36.74-18.77,55.25l-2.08-.93c1.49-8.49,24.73-80.84,26.85-83.97Z"/>
  <path class="st6" d="M411.18,295.29c.16,2.3-.16,5.33-.95,7.5l.83-1.97-.38.45c.81-1.68,2.08-4.58,3.17-5.96-2.51,11.01-16.9,55.77-21.95,64.84-1.47-2.11-2.13-2.9-2.88-5.42,1.18-.66,2.05-1.16,2.54-2.5,6.81-18.75,12.05-38.46,19.62-56.94Z"/>
  <path class="st3" d="M252.57,316.76l3.56,10.74c-3.16.85-3.75.52-5.64,3.45-4.42,6.87-6.78,23.05-10.79,29.14l-1.41-2.08c5.42-8.24,7-34.87,14.28-41.25Z"/>
  <path class="st2" d="M260.03,293.4c3.26-10.98,6.44-22.01,10.56-32.7.36-.93-.38-4.63-.54-5.87,1.76-1.65,3.52-1.9,5.76-1.12,1.59,2.62-.7,3.82-2.71,5.68-2.07,11.49-8.6,26.83-11.54,38.51-.79-1.11-1.17-3.11-1.52-4.49Z"/>
  <path class="st2" d="M411.18,295.29c2.17-6.89,11.56-31.42,10.63-36.32-.35-1.84-.52-3.3.38-4.95,2.48-.58,6.33-.31,8.99-.23-2.03,1.79-4.96,4.24-6.74,6.14-2.15,9.76-7.39,25.6-10.59,35.39-1.09,1.38-2.36,4.28-3.17,5.96l.38-.45-.83,1.97c.79-2.17,1.1-5.2.95-7.5Z"/>
  <path class="st2" d="M155.53,257.81l3.28,1.31c-.32,5.71-10.93,32.77-13.27,41.67-.83.38-1.85.88-2.69,1.18l-.43-2.05c2.04-3.26,13.33-39.23,13.11-42.1Z"/>
  <path class="st2" d="M383.27,253.89l11.58.08c-2.8,1.9-4.9,3.57-7.52,5.71-1.46,7.36-8.63,27.39-11.29,35.89-.34,2.6.07,1.89-1.37,3.8-.92-.39-1.08-1.04-.81-2.3,2.76-13.03,8.85-25.92,10.99-39.01.11-.69-1.17-3.38-1.57-4.17Z"/>
  <path class="st6" d="M137.94,315.52l2.61,8.48c-.2.15-.41.31-.61.46l-.32.27c-6.37,5.31-7.31,25.08-11.84,28.85-1.87-3.22,8.69-32.51,10.06-37.67l.1-.39Z"/>
  <path class="st6" d="M353.09,357.47c2.76-2.74,9.09-28.34,11.96-34.57,3.08,5.69-7.32,31.15-10.33,37.19-.32-.92-1.04-1.8-1.62-2.62Z"/>
  <path class="st2" d="M281.39,341.16l2.08.93c-1.83,4.49-3.63,14.81-6.91,17.3l-1.08-1.78c1.85-1.85,4.89-13.13,5.91-16.46Z"/>
  <path class="st0" d="M155.53,257.81l-.52-2.53c1.97-2.35,6.94-1.4,9.97-1.21l-6.17,5.05-3.28-1.31Z"/>
</svg>